<?xml version="1.0" encoding="utf-8" standalone="no"?>
<!DOCTYPE svg PUBLIC "-//W3C//DTD SVG 1.1//EN"
  "http://www.w3.org/Graphics/SVG/1.1/DTD/svg11.dtd">
<!-- Created with matplotlib (http://matplotlib.org/) -->
<svg height="432pt" version="1.1" viewBox="0 0 648 432" width="648pt" xmlns="http://www.w3.org/2000/svg" xmlns:xlink="http://www.w3.org/1999/xlink">
 <defs>
  <style type="text/css">
*{stroke-linecap:butt;stroke-linejoin:round;}
  </style>
 </defs>
 <g id="figure_1">
  <g id="patch_1">
   <path d="M 0 432 
L 648 432 
L 648 0 
L 0 0 
z
" style="fill:none;"/>
  </g>
  <g id="axes_1">
   <g id="patch_2">
    <path d="M 81 378 
L 583.2 378 
L 583.2 51.84 
L 81 51.84 
z
" style="fill:none;"/>
   </g>
   <g id="matplotlib.axis_1">
    <g id="xtick_1">
     <g id="line2d_1">
      <defs>
       <path d="M 0 0 
L 0 3.5 
" id="med36af7cb2" style="stroke:#ffffff;stroke-width:0.8;"/>
      </defs>
      <g>
       <use style="fill:#ffffff;stroke:#ffffff;stroke-width:0.8;" x="81" xlink:href="#med36af7cb2" y="378"/>
      </g>
     </g>
     <g id="text_1">
      <!-- −10.0 -->
      <defs>
       <path d="M 10.59375 35.5 
L 73.1875 35.5 
L 73.1875 27.203125 
L 10.59375 27.203125 
z
" id="DejaVuSans-2212"/>
       <path d="M 12.40625 8.296875 
L 28.515625 8.296875 
L 28.515625 63.921875 
L 10.984375 60.40625 
L 10.984375 69.390625 
L 28.421875 72.90625 
L 38.28125 72.90625 
L 38.28125 8.296875 
L 54.390625 8.296875 
L 54.390625 0 
L 12.40625 0 
z
" id="DejaVuSans-31"/>
       <path d="M 31.78125 66.40625 
Q 24.171875 66.40625 20.328125 58.90625 
Q 16.5 51.421875 16.5 36.375 
Q 16.5 21.390625 20.328125 13.890625 
Q 24.171875 6.390625 31.78125 6.390625 
Q 39.453125 6.390625 43.28125 13.890625 
Q 47.125 21.390625 47.125 36.375 
Q 47.125 51.421875 43.28125 58.90625 
Q 39.453125 66.40625 31.78125 66.40625 
z
M 31.78125 74.21875 
Q 44.046875 74.21875 50.515625 64.515625 
Q 56.984375 54.828125 56.984375 36.375 
Q 56.984375 17.96875 50.515625 8.265625 
Q 44.046875 -1.421875 31.78125 -1.421875 
Q 19.53125 -1.421875 13.0625 8.265625 
Q 6.59375 17.96875 6.59375 36.375 
Q 6.59375 54.828125 13.0625 64.515625 
Q 19.53125 74.21875 31.78125 74.21875 
z
" id="DejaVuSans-30"/>
       <path d="M 10.6875 12.40625 
L 21 12.40625 
L 21 0 
L 10.6875 0 
z
" id="DejaVuSans-2e"/>
      </defs>
      <g style="fill:#ffffff;" transform="translate(65.677344 392.598437)scale(0.1 -0.1)">
       <use xlink:href="#DejaVuSans-2212"/>
       <use x="83.789062" xlink:href="#DejaVuSans-31"/>
       <use x="147.412109" xlink:href="#DejaVuSans-30"/>
       <use x="211.035156" xlink:href="#DejaVuSans-2e"/>
       <use x="242.822266" xlink:href="#DejaVuSans-30"/>
      </g>
     </g>
    </g>
    <g id="xtick_2">
     <g id="line2d_2">
      <g>
       <use style="fill:#ffffff;stroke:#ffffff;stroke-width:0.8;" x="143.775" xlink:href="#med36af7cb2" y="378"/>
      </g>
     </g>
     <g id="text_2">
      <!-- −7.5 -->
      <defs>
       <path d="M 8.203125 72.90625 
L 55.078125 72.90625 
L 55.078125 68.703125 
L 28.609375 0 
L 18.3125 0 
L 43.21875 64.59375 
L 8.203125 64.59375 
z
" id="DejaVuSans-37"/>
       <path d="M 10.796875 72.90625 
L 49.515625 72.90625 
L 49.515625 64.59375 
L 19.828125 64.59375 
L 19.828125 46.734375 
Q 21.96875 47.46875 24.109375 47.828125 
Q 26.265625 48.1875 28.421875 48.1875 
Q 40.625 48.1875 47.75 41.5 
Q 54.890625 34.8125 54.890625 23.390625 
Q 54.890625 11.625 47.5625 5.09375 
Q 40.234375 -1.421875 26.90625 -1.421875 
Q 22.3125 -1.421875 17.546875 -0.640625 
Q 12.796875 0.140625 7.71875 1.703125 
L 7.71875 11.625 
Q 12.109375 9.234375 16.796875 8.0625 
Q 21.484375 6.890625 26.703125 6.890625 
Q 35.15625 6.890625 40.078125 11.328125 
Q 45.015625 15.765625 45.015625 23.390625 
Q 45.015625 31 40.078125 35.4375 
Q 35.15625 39.890625 26.703125 39.890625 
Q 22.75 39.890625 18.8125 39.015625 
Q 14.890625 38.140625 10.796875 36.28125 
z
" id="DejaVuSans-35"/>
      </defs>
      <g style="fill:#ffffff;" transform="translate(131.633594 392.598437)scale(0.1 -0.1)">
       <use xlink:href="#DejaVuSans-2212"/>
       <use x="83.789062" xlink:href="#DejaVuSans-37"/>
       <use x="147.412109" xlink:href="#DejaVuSans-2e"/>
       <use x="179.199219" xlink:href="#DejaVuSans-35"/>
      </g>
     </g>
    </g>
    <g id="xtick_3">
     <g id="line2d_3">
      <g>
       <use style="fill:#ffffff;stroke:#ffffff;stroke-width:0.8;" x="206.55" xlink:href="#med36af7cb2" y="378"/>
      </g>
     </g>
     <g id="text_3">
      <!-- −5.0 -->
      <g style="fill:#ffffff;" transform="translate(194.408594 392.598437)scale(0.1 -0.1)">
       <use xlink:href="#DejaVuSans-2212"/>
       <use x="83.789062" xlink:href="#DejaVuSans-35"/>
       <use x="147.412109" xlink:href="#DejaVuSans-2e"/>
       <use x="179.199219" xlink:href="#DejaVuSans-30"/>
      </g>
     </g>
    </g>
    <g id="xtick_4">
     <g id="line2d_4">
      <g>
       <use style="fill:#ffffff;stroke:#ffffff;stroke-width:0.8;" x="269.325" xlink:href="#med36af7cb2" y="378"/>
      </g>
     </g>
     <g id="text_4">
      <!-- −2.5 -->
      <defs>
       <path d="M 19.1875 8.296875 
L 53.609375 8.296875 
L 53.609375 0 
L 7.328125 0 
L 7.328125 8.296875 
Q 12.9375 14.109375 22.625 23.890625 
Q 32.328125 33.6875 34.8125 36.53125 
Q 39.546875 41.84375 41.421875 45.53125 
Q 43.3125 49.21875 43.3125 52.78125 
Q 43.3125 58.59375 39.234375 62.25 
Q 35.15625 65.921875 28.609375 65.921875 
Q 23.96875 65.921875 18.8125 64.3125 
Q 13.671875 62.703125 7.8125 59.421875 
L 7.8125 69.390625 
Q 13.765625 71.78125 18.9375 73 
Q 24.125 74.21875 28.421875 74.21875 
Q 39.75 74.21875 46.484375 68.546875 
Q 53.21875 62.890625 53.21875 53.421875 
Q 53.21875 48.921875 51.53125 44.890625 
Q 49.859375 40.875 45.40625 35.40625 
Q 44.1875 33.984375 37.640625 27.21875 
Q 31.109375 20.453125 19.1875 8.296875 
z
" id="DejaVuSans-32"/>
      </defs>
      <g style="fill:#ffffff;" transform="translate(257.183594 392.598437)scale(0.1 -0.1)">
       <use xlink:href="#DejaVuSans-2212"/>
       <use x="83.789062" xlink:href="#DejaVuSans-32"/>
       <use x="147.412109" xlink:href="#DejaVuSans-2e"/>
       <use x="179.199219" xlink:href="#DejaVuSans-35"/>
      </g>
     </g>
    </g>
    <g id="xtick_5">
     <g id="line2d_5">
      <g>
       <use style="fill:#ffffff;stroke:#ffffff;stroke-width:0.8;" x="332.1" xlink:href="#med36af7cb2" y="378"/>
      </g>
     </g>
     <g id="text_5">
      <!-- 0.0 -->
      <g style="fill:#ffffff;" transform="translate(324.148438 392.598437)scale(0.1 -0.1)">
       <use xlink:href="#DejaVuSans-30"/>
       <use x="63.623047" xlink:href="#DejaVuSans-2e"/>
       <use x="95.410156" xlink:href="#DejaVuSans-30"/>
      </g>
     </g>
    </g>
    <g id="xtick_6">
     <g id="line2d_6">
      <g>
       <use style="fill:#ffffff;stroke:#ffffff;stroke-width:0.8;" x="394.875" xlink:href="#med36af7cb2" y="378"/>
      </g>
     </g>
     <g id="text_6">
      <!-- 2.5 -->
      <g style="fill:#ffffff;" transform="translate(386.923437 392.598437)scale(0.1 -0.1)">
       <use xlink:href="#DejaVuSans-32"/>
       <use x="63.623047" xlink:href="#DejaVuSans-2e"/>
       <use x="95.410156" xlink:href="#DejaVuSans-35"/>
      </g>
     </g>
    </g>
    <g id="xtick_7">
     <g id="line2d_7">
      <g>
       <use style="fill:#ffffff;stroke:#ffffff;stroke-width:0.8;" x="457.65" xlink:href="#med36af7cb2" y="378"/>
      </g>
     </g>
     <g id="text_7">
      <!-- 5.0 -->
      <g style="fill:#ffffff;" transform="translate(449.698438 392.598437)scale(0.1 -0.1)">
       <use xlink:href="#DejaVuSans-35"/>
       <use x="63.623047" xlink:href="#DejaVuSans-2e"/>
       <use x="95.410156" xlink:href="#DejaVuSans-30"/>
      </g>
     </g>
    </g>
    <g id="xtick_8">
     <g id="line2d_8">
      <g>
       <use style="fill:#ffffff;stroke:#ffffff;stroke-width:0.8;" x="520.425" xlink:href="#med36af7cb2" y="378"/>
      </g>
     </g>
     <g id="text_8">
      <!-- 7.5 -->
      <g style="fill:#ffffff;" transform="translate(512.473438 392.598437)scale(0.1 -0.1)">
       <use xlink:href="#DejaVuSans-37"/>
       <use x="63.623047" xlink:href="#DejaVuSans-2e"/>
       <use x="95.410156" xlink:href="#DejaVuSans-35"/>
      </g>
     </g>
    </g>
    <g id="xtick_9">
     <g id="line2d_9">
      <g>
       <use style="fill:#ffffff;stroke:#ffffff;stroke-width:0.8;" x="583.2" xlink:href="#med36af7cb2" y="378"/>
      </g>
     </g>
     <g id="text_9">
      <!-- 10.0 -->
      <g style="fill:#ffffff;" transform="translate(572.067188 392.598437)scale(0.1 -0.1)">
       <use xlink:href="#DejaVuSans-31"/>
       <use x="63.623047" xlink:href="#DejaVuSans-30"/>
       <use x="127.246094" xlink:href="#DejaVuSans-2e"/>
       <use x="159.033203" xlink:href="#DejaVuSans-30"/>
      </g>
     </g>
    </g>
    <g id="text_10">
     <!--  α -->
     <defs>
      <path id="DejaVuSans-20"/>
      <path d="M 41.3125 25.4375 
L 39.15625 36.71875 
Q 36.96875 48.296875 28.265625 48.296875 
Q 21.734375 48.296875 18.75 42.921875 
Q 14.984375 36.1875 14.984375 27.296875 
Q 14.984375 16.546875 18.65625 11.421875 
Q 22.359375 6.203125 28.265625 6.203125 
Q 34.8125 6.203125 38.328125 16.609375 
z
M 46.34375 40.375 
L 51.171875 54.6875 
L 59.1875 54.6875 
L 49.171875 25.046875 
L 51.125 14.359375 
Q 51.5625 11.96875 53.265625 9.96875 
Q 55.28125 7.625 56.84375 7.625 
L 61.140625 7.625 
L 61.140625 0 
L 55.765625 0 
Q 51.171875 0 47.078125 4.109375 
Q 45.0625 6.15625 44.234375 10.453125 
Q 42 5.03125 37.40625 0.78125 
Q 35.25 -1.21875 28.265625 -1.21875 
Q 16.796875 -1.21875 11.234375 6.203125 
Q 5.515625 13.875 5.515625 27.296875 
Q 5.515625 41.65625 11.71875 48.390625 
Q 18.609375 55.90625 28.265625 55.90625 
Q 43.453125 55.90625 46.34375 40.375 
z
" id="DejaVuSans-3b1"/>
     </defs>
     <g style="fill:#ffffff;" transform="translate(327.214844 406.276563)scale(0.1 -0.1)">
      <use xlink:href="#DejaVuSans-20"/>
      <use x="31.787109" xlink:href="#DejaVuSans-3b1"/>
     </g>
    </g>
   </g>
   <g id="matplotlib.axis_2">
    <g id="ytick_1">
     <g id="line2d_10">
      <defs>
       <path d="M 0 0 
L -3.5 0 
" id="md84047681d" style="stroke:#ffffff;stroke-width:0.8;"/>
      </defs>
      <g>
       <use style="fill:#ffffff;stroke:#ffffff;stroke-width:0.8;" x="81" xlink:href="#md84047681d" y="345.384"/>
      </g>
     </g>
     <g id="text_11">
      <!-- −4 -->
      <defs>
       <path d="M 37.796875 64.3125 
L 12.890625 25.390625 
L 37.796875 25.390625 
z
M 35.203125 72.90625 
L 47.609375 72.90625 
L 47.609375 25.390625 
L 58.015625 25.390625 
L 58.015625 17.1875 
L 47.609375 17.1875 
L 47.609375 0 
L 37.796875 0 
L 37.796875 17.1875 
L 4.890625 17.1875 
L 4.890625 26.703125 
z
" id="DejaVuSans-34"/>
      </defs>
      <g style="fill:#ffffff;" transform="translate(59.257812 349.183219)scale(0.1 -0.1)">
       <use xlink:href="#DejaVuSans-2212"/>
       <use x="83.789062" xlink:href="#DejaVuSans-34"/>
      </g>
     </g>
    </g>
    <g id="ytick_2">
     <g id="line2d_11">
      <g>
       <use style="fill:#ffffff;stroke:#ffffff;stroke-width:0.8;" x="81" xlink:href="#md84047681d" y="280.152"/>
      </g>
     </g>
     <g id="text_12">
      <!-- −2 -->
      <g style="fill:#ffffff;" transform="translate(59.257812 283.951219)scale(0.1 -0.1)">
       <use xlink:href="#DejaVuSans-2212"/>
       <use x="83.789062" xlink:href="#DejaVuSans-32"/>
      </g>
     </g>
    </g>
    <g id="ytick_3">
     <g id="line2d_12">
      <g>
       <use style="fill:#ffffff;stroke:#ffffff;stroke-width:0.8;" x="81" xlink:href="#md84047681d" y="214.92"/>
      </g>
     </g>
     <g id="text_13">
      <!-- 0 -->
      <g style="fill:#ffffff;" transform="translate(67.6375 218.719219)scale(0.1 -0.1)">
       <use xlink:href="#DejaVuSans-30"/>
      </g>
     </g>
    </g>
    <g id="ytick_4">
     <g id="line2d_13">
      <g>
       <use style="fill:#ffffff;stroke:#ffffff;stroke-width:0.8;" x="81" xlink:href="#md84047681d" y="149.688"/>
      </g>
     </g>
     <g id="text_14">
      <!-- 2 -->
      <g style="fill:#ffffff;" transform="translate(67.6375 153.487219)scale(0.1 -0.1)">
       <use xlink:href="#DejaVuSans-32"/>
      </g>
     </g>
    </g>
    <g id="ytick_5">
     <g id="line2d_14">
      <g>
       <use style="fill:#ffffff;stroke:#ffffff;stroke-width:0.8;" x="81" xlink:href="#md84047681d" y="84.456"/>
      </g>
     </g>
     <g id="text_15">
      <!-- 4 -->
      <g style="fill:#ffffff;" transform="translate(67.6375 88.255219)scale(0.1 -0.1)">
       <use xlink:href="#DejaVuSans-34"/>
      </g>
     </g>
    </g>
    <g id="text_16">
     <!-- fixed point -->
     <defs>
      <path d="M 37.109375 75.984375 
L 37.109375 68.5 
L 28.515625 68.5 
Q 23.6875 68.5 21.796875 66.546875 
Q 19.921875 64.59375 19.921875 59.515625 
L 19.921875 54.6875 
L 34.71875 54.6875 
L 34.71875 47.703125 
L 19.921875 47.703125 
L 19.921875 0 
L 10.890625 0 
L 10.890625 47.703125 
L 2.296875 47.703125 
L 2.296875 54.6875 
L 10.890625 54.6875 
L 10.890625 58.5 
Q 10.890625 67.625 15.140625 71.796875 
Q 19.390625 75.984375 28.609375 75.984375 
z
" id="DejaVuSans-66"/>
      <path d="M 9.421875 54.6875 
L 18.40625 54.6875 
L 18.40625 0 
L 9.421875 0 
z
M 9.421875 75.984375 
L 18.40625 75.984375 
L 18.40625 64.59375 
L 9.421875 64.59375 
z
" id="DejaVuSans-69"/>
      <path d="M 54.890625 54.6875 
L 35.109375 28.078125 
L 55.90625 0 
L 45.3125 0 
L 29.390625 21.484375 
L 13.484375 0 
L 2.875 0 
L 24.125 28.609375 
L 4.6875 54.6875 
L 15.28125 54.6875 
L 29.78125 35.203125 
L 44.28125 54.6875 
z
" id="DejaVuSans-78"/>
      <path d="M 56.203125 29.59375 
L 56.203125 25.203125 
L 14.890625 25.203125 
Q 15.484375 15.921875 20.484375 11.0625 
Q 25.484375 6.203125 34.421875 6.203125 
Q 39.59375 6.203125 44.453125 7.46875 
Q 49.3125 8.734375 54.109375 11.28125 
L 54.109375 2.78125 
Q 49.265625 0.734375 44.1875 -0.34375 
Q 39.109375 -1.421875 33.890625 -1.421875 
Q 20.796875 -1.421875 13.15625 6.1875 
Q 5.515625 13.8125 5.515625 26.8125 
Q 5.515625 40.234375 12.765625 48.109375 
Q 20.015625 56 32.328125 56 
Q 43.359375 56 49.78125 48.890625 
Q 56.203125 41.796875 56.203125 29.59375 
z
M 47.21875 32.234375 
Q 47.125 39.59375 43.09375 43.984375 
Q 39.0625 48.390625 32.421875 48.390625 
Q 24.90625 48.390625 20.390625 44.140625 
Q 15.875 39.890625 15.1875 32.171875 
z
" id="DejaVuSans-65"/>
      <path d="M 45.40625 46.390625 
L 45.40625 75.984375 
L 54.390625 75.984375 
L 54.390625 0 
L 45.40625 0 
L 45.40625 8.203125 
Q 42.578125 3.328125 38.25 0.953125 
Q 33.9375 -1.421875 27.875 -1.421875 
Q 17.96875 -1.421875 11.734375 6.484375 
Q 5.515625 14.40625 5.515625 27.296875 
Q 5.515625 40.1875 11.734375 48.09375 
Q 17.96875 56 27.875 56 
Q 33.9375 56 38.25 53.625 
Q 42.578125 51.265625 45.40625 46.390625 
z
M 14.796875 27.296875 
Q 14.796875 17.390625 18.875 11.75 
Q 22.953125 6.109375 30.078125 6.109375 
Q 37.203125 6.109375 41.296875 11.75 
Q 45.40625 17.390625 45.40625 27.296875 
Q 45.40625 37.203125 41.296875 42.84375 
Q 37.203125 48.484375 30.078125 48.484375 
Q 22.953125 48.484375 18.875 42.84375 
Q 14.796875 37.203125 14.796875 27.296875 
z
" id="DejaVuSans-64"/>
      <path d="M 18.109375 8.203125 
L 18.109375 -20.796875 
L 9.078125 -20.796875 
L 9.078125 54.6875 
L 18.109375 54.6875 
L 18.109375 46.390625 
Q 20.953125 51.265625 25.265625 53.625 
Q 29.59375 56 35.59375 56 
Q 45.5625 56 51.78125 48.09375 
Q 58.015625 40.1875 58.015625 27.296875 
Q 58.015625 14.40625 51.78125 6.484375 
Q 45.5625 -1.421875 35.59375 -1.421875 
Q 29.59375 -1.421875 25.265625 0.953125 
Q 20.953125 3.328125 18.109375 8.203125 
z
M 48.6875 27.296875 
Q 48.6875 37.203125 44.609375 42.84375 
Q 40.53125 48.484375 33.40625 48.484375 
Q 26.265625 48.484375 22.1875 42.84375 
Q 18.109375 37.203125 18.109375 27.296875 
Q 18.109375 17.390625 22.1875 11.75 
Q 26.265625 6.109375 33.40625 6.109375 
Q 40.53125 6.109375 44.609375 11.75 
Q 48.6875 17.390625 48.6875 27.296875 
z
" id="DejaVuSans-70"/>
      <path d="M 30.609375 48.390625 
Q 23.390625 48.390625 19.1875 42.75 
Q 14.984375 37.109375 14.984375 27.296875 
Q 14.984375 17.484375 19.15625 11.84375 
Q 23.34375 6.203125 30.609375 6.203125 
Q 37.796875 6.203125 41.984375 11.859375 
Q 46.1875 17.53125 46.1875 27.296875 
Q 46.1875 37.015625 41.984375 42.703125 
Q 37.796875 48.390625 30.609375 48.390625 
z
M 30.609375 56 
Q 42.328125 56 49.015625 48.375 
Q 55.71875 40.765625 55.71875 27.296875 
Q 55.71875 13.875 49.015625 6.21875 
Q 42.328125 -1.421875 30.609375 -1.421875 
Q 18.84375 -1.421875 12.171875 6.21875 
Q 5.515625 13.875 5.515625 27.296875 
Q 5.515625 40.765625 12.171875 48.375 
Q 18.84375 56 30.609375 56 
z
" id="DejaVuSans-6f"/>
      <path d="M 54.890625 33.015625 
L 54.890625 0 
L 45.90625 0 
L 45.90625 32.71875 
Q 45.90625 40.484375 42.875 44.328125 
Q 39.84375 48.1875 33.796875 48.1875 
Q 26.515625 48.1875 22.3125 43.546875 
Q 18.109375 38.921875 18.109375 30.90625 
L 18.109375 0 
L 9.078125 0 
L 9.078125 54.6875 
L 18.109375 54.6875 
L 18.109375 46.1875 
Q 21.34375 51.125 25.703125 53.5625 
Q 30.078125 56 35.796875 56 
Q 45.21875 56 50.046875 50.171875 
Q 54.890625 44.34375 54.890625 33.015625 
z
" id="DejaVuSans-6e"/>
      <path d="M 18.3125 70.21875 
L 18.3125 54.6875 
L 36.8125 54.6875 
L 36.8125 47.703125 
L 18.3125 47.703125 
L 18.3125 18.015625 
Q 18.3125 11.328125 20.140625 9.421875 
Q 21.96875 7.515625 27.59375 7.515625 
L 36.8125 7.515625 
L 36.8125 0 
L 27.59375 0 
Q 17.1875 0 13.234375 3.875 
Q 9.28125 7.765625 9.28125 18.015625 
L 9.28125 47.703125 
L 2.6875 47.703125 
L 2.6875 54.6875 
L 9.28125 54.6875 
L 9.28125 70.21875 
z
" id="DejaVuSans-74"/>
     </defs>
     <g style="fill:#ffffff;" transform="translate(53.178125 241.617656)rotate(-90)scale(0.1 -0.1)">
      <use xlink:href="#DejaVuSans-66"/>
      <use x="35.205078" xlink:href="#DejaVuSans-69"/>
      <use x="62.988281" xlink:href="#DejaVuSans-78"/>
      <use x="122.121094" xlink:href="#DejaVuSans-65"/>
      <use x="183.644531" xlink:href="#DejaVuSans-64"/>
      <use x="247.121094" xlink:href="#DejaVuSans-20"/>
      <use x="278.908203" xlink:href="#DejaVuSans-70"/>
      <use x="342.384766" xlink:href="#DejaVuSans-6f"/>
      <use x="403.566406" xlink:href="#DejaVuSans-69"/>
      <use x="431.349609" xlink:href="#DejaVuSans-6e"/>
      <use x="494.728516" xlink:href="#DejaVuSans-74"/>
     </g>
    </g>
   </g>
   <g id="line2d_15">
    <path clip-path="url(#p52b44bf2a1)" d="M 81 214.92 
L 86.12449 214.92 
L 91.24898 214.92 
L 96.373469 214.92 
L 101.497959 214.92 
L 106.622449 214.92 
L 111.746939 214.92 
L 116.871429 214.92 
L 121.995918 214.92 
L 127.120408 214.92 
L 132.244898 214.92 
L 137.369388 214.92 
L 142.493878 214.92 
L 147.618367 214.92 
L 152.742857 214.92 
L 157.867347 214.92 
L 162.991837 214.92 
L 168.116327 214.92 
L 173.240816 214.92 
L 178.365306 214.92 
L 183.489796 214.92 
L 188.614286 214.92 
L 193.738776 214.92 
L 198.863265 214.92 
L 203.987755 214.92 
L 209.112245 214.92 
L 214.236735 214.92 
L 219.361224 214.92 
L 224.485714 214.92 
L 229.610204 214.92 
L 234.734694 214.92 
L 239.859184 214.92 
L 244.983673 214.92 
L 250.108163 214.92 
L 255.232653 214.92 
L 260.357143 214.92 
L 265.481633 214.92 
L 270.606122 214.92 
L 275.730612 214.92 
L 280.855102 214.92 
L 285.979592 214.92 
L 291.104082 214.92 
L 296.228571 214.92 
L 301.353061 214.92 
L 306.477551 214.92 
L 311.602041 214.92 
L 316.726531 214.92 
L 321.85102 214.92 
L 326.97551 214.92 
L 332.1 214.92 
" style="fill:none;stroke:#00ffff;stroke-linecap:square;stroke-width:3;"/>
   </g>
   <g id="line2d_16">
    <path clip-path="url(#p52b44bf2a1)" d="M 332.1 214.92 
L 337.22449 214.92 
L 342.34898 214.92 
L 347.473469 214.92 
L 352.597959 214.92 
L 357.722449 214.92 
L 362.846939 214.92 
L 367.971429 214.92 
L 373.095918 214.92 
L 378.220408 214.92 
L 383.344898 214.92 
L 388.469388 214.92 
L 393.593878 214.92 
L 398.718367 214.92 
L 403.842857 214.92 
L 408.967347 214.92 
L 414.091837 214.92 
L 419.216327 214.92 
L 424.340816 214.92 
L 429.465306 214.92 
L 434.589796 214.92 
L 439.714286 214.92 
L 444.838776 214.92 
L 449.963265 214.92 
L 455.087755 214.92 
L 460.212245 214.92 
L 465.336735 214.92 
L 470.461224 214.92 
L 475.585714 214.92 
L 480.710204 214.92 
L 485.834694 214.92 
L 490.959184 214.92 
L 496.083673 214.92 
L 501.208163 214.92 
L 506.332653 214.92 
L 511.457143 214.92 
L 516.581633 214.92 
L 521.706122 214.92 
L 526.830612 214.92 
L 531.955102 214.92 
L 537.079592 214.92 
L 542.204082 214.92 
L 547.328571 214.92 
L 552.453061 214.92 
L 557.577551 214.92 
L 562.702041 214.92 
L 567.826531 214.92 
L 572.95102 214.92 
L 578.07551 214.92 
L 583.2 214.92 
" style="fill:none;stroke:#800080;stroke-linecap:square;stroke-width:3;"/>
   </g>
   <g id="line2d_17">
    <path clip-path="url(#p52b44bf2a1)" d="M 332.1 214.92 
L 337.22449 200.185593 
L 342.34898 194.082402 
L 347.473469 189.399259 
L 352.597959 185.451186 
L 357.722449 181.972865 
L 362.846939 178.828221 
L 367.971429 175.936424 
L 373.095918 173.244804 
L 378.220408 170.716779 
L 383.344898 168.325714 
L 388.469388 166.051501 
L 393.593878 163.878517 
L 398.718367 161.79434 
L 403.842857 159.788898 
L 408.967347 157.853888 
L 414.091837 155.982372 
L 419.216327 154.168484 
L 424.340816 152.407206 
L 429.465306 150.694209 
L 434.589796 149.025729 
L 439.714286 147.398465 
L 444.838776 145.809506 
L 449.963265 144.256267 
L 455.087755 142.736443 
L 460.212245 141.247966 
L 465.336735 139.788972 
L 470.461224 138.357776 
L 475.585714 136.952847 
L 480.710204 135.572791 
L 485.834694 134.21633 
L 490.959184 132.882294 
L 496.083673 131.569608 
L 501.208163 130.277277 
L 506.332653 129.004382 
L 511.457143 127.750073 
L 516.581633 126.513559 
L 521.706122 125.294102 
L 526.830612 124.091016 
L 531.955102 122.903659 
L 537.079592 121.731429 
L 542.204082 120.573762 
L 547.328571 119.43013 
L 552.453061 118.300033 
L 557.577551 117.183002 
L 562.702041 116.078594 
L 567.826531 114.98639 
L 572.95102 113.905996 
L 578.07551 112.837035 
L 583.2 111.779152 
" style="fill:none;stroke:#00ffff;stroke-linecap:square;stroke-width:3;"/>
   </g>
   <g id="line2d_18">
    <path clip-path="url(#p52b44bf2a1)" d="M 332.1 214.92 
L 337.22449 229.654407 
L 342.34898 235.757598 
L 347.473469 240.440741 
L 352.597959 244.388814 
L 357.722449 247.867135 
L 362.846939 251.011779 
L 367.971429 253.903576 
L 373.095918 256.595196 
L 378.220408 259.123221 
L 383.344898 261.514286 
L 388.469388 263.788499 
L 393.593878 265.961483 
L 398.718367 268.04566 
L 403.842857 270.051102 
L 408.967347 271.986112 
L 414.091837 273.857628 
L 419.216327 275.671516 
L 424.340816 277.432794 
L 429.465306 279.145791 
L 434.589796 280.814271 
L 439.714286 282.441535 
L 444.838776 284.030494 
L 449.963265 285.583733 
L 455.087755 287.103557 
L 460.212245 288.592034 
L 465.336735 290.051028 
L 470.461224 291.482224 
L 475.585714 292.887153 
L 480.710204 294.267209 
L 485.834694 295.62367 
L 490.959184 296.957706 
L 496.083673 298.270392 
L 501.208163 299.562723 
L 506.332653 300.835618 
L 511.457143 302.089927 
L 516.581633 303.326441 
L 521.706122 304.545898 
L 526.830612 305.748984 
L 531.955102 306.936341 
L 537.079592 308.108571 
L 542.204082 309.266238 
L 547.328571 310.40987 
L 552.453061 311.539967 
L 557.577551 312.656998 
L 562.702041 313.761406 
L 567.826531 314.85361 
L 572.95102 315.934004 
L 578.07551 317.002965 
L 583.2 318.060848 
" style="fill:none;stroke:#00ffff;stroke-linecap:square;stroke-width:3;"/>
   </g>
   <g id="line2d_19">
    <defs>
     <path d="M 0 3 
C 0.795609 3 1.55874 2.683901 2.12132 2.12132 
C 2.683901 1.55874 3 0.795609 3 0 
C 3 -0.795609 2.683901 -1.55874 2.12132 -2.12132 
C 1.55874 -2.683901 0.795609 -3 0 -3 
C -0.795609 -3 -1.55874 -2.683901 -2.12132 -2.12132 
C -2.683901 -1.55874 -3 -0.795609 -3 0 
C -3 0.795609 -2.683901 1.55874 -2.12132 2.12132 
C -1.55874 2.683901 -0.795609 3 0 3 
z
" id="m7ab326e0b1" style="stroke:#ffa500;"/>
    </defs>
    <g clip-path="url(#p52b44bf2a1)">
     <use style="fill:#ffa500;stroke:#ffa500;" x="332.1" xlink:href="#m7ab326e0b1" y="214.92"/>
    </g>
   </g>
   <g id="patch_3">
    <path d="M 81 378 
L 81 51.84 
" style="fill:none;stroke:#ffffff;stroke-linecap:square;stroke-linejoin:miter;stroke-width:0.8;"/>
   </g>
   <g id="patch_4">
    <path d="M 583.2 378 
L 583.2 51.84 
" style="fill:none;stroke:#ffffff;stroke-linecap:square;stroke-linejoin:miter;stroke-width:0.8;"/>
   </g>
   <g id="patch_5">
    <path d="M 81 378 
L 583.2 378 
" style="fill:none;stroke:#ffffff;stroke-linecap:square;stroke-linejoin:miter;stroke-width:0.8;"/>
   </g>
   <g id="patch_6">
    <path d="M 81 51.84 
L 583.2 51.84 
" style="fill:none;stroke:#ffffff;stroke-linecap:square;stroke-linejoin:miter;stroke-width:0.8;"/>
   </g>
   <g id="patch_7">
    <path d="M 306.49 345.384 
Q 306.49 294.306785 306.49 243.229569 
L 300.99 243.229569 
Q 303.99 237.228785 306.99 231.228 
Q 309.99 237.228785 312.99 243.229569 
L 307.49 243.229569 
Q 307.49 294.306785 307.49 345.384 
L 306.49 345.384 
z
" style="fill:#ffffff;stroke:#000000;stroke-linecap:round;stroke-width:0.01;"/>
   </g>
   <g id="patch_8">
    <path d="M 307.49 84.456 
Q 307.49 135.533215 307.49 186.610431 
L 312.99 186.610431 
Q 309.99 192.611215 306.99 198.612 
Q 303.99 192.611215 300.99 186.610431 
L 306.49 186.610431 
Q 306.49 135.533215 306.49 84.456 
L 307.49 84.456 
z
" style="fill:#ffffff;stroke:#000000;stroke-linecap:round;stroke-width:0.01;"/>
   </g>
   <g id="patch_9">
    <path d="M 206.05 345.384 
Q 206.05 294.306785 206.05 243.229569 
L 200.55 243.229569 
Q 203.55 237.228785 206.55 231.228 
Q 209.55 237.228785 212.55 243.229569 
L 207.05 243.229569 
Q 207.05 294.306785 207.05 345.384 
L 206.05 345.384 
z
" style="fill:#ffffff;stroke:#000000;stroke-linecap:round;stroke-width:0.01;"/>
   </g>
   <g id="patch_10">
    <path d="M 207.05 84.456 
Q 207.05 135.533215 207.05 186.610431 
L 212.55 186.610431 
Q 209.55 192.611215 206.55 198.612 
Q 203.55 192.611215 200.55 186.610431 
L 206.05 186.610431 
Q 206.05 135.533215 206.05 84.456 
L 207.05 84.456 
z
" style="fill:#ffffff;stroke:#000000;stroke-linecap:round;stroke-width:0.01;"/>
   </g>
   <g id="patch_11">
    <path d="M 406.93 198.612 
Q 406.93 188.302047 406.93 177.992095 
L 401.43 177.992095 
Q 404.43 171.994047 407.43 165.996 
Q 410.43 171.994047 413.43 177.992095 
L 407.93 177.992095 
Q 407.93 188.302047 407.93 198.612 
L 406.93 198.612 
z
" style="fill:#ffffff;stroke:#000000;stroke-linecap:round;stroke-width:0.01;"/>
   </g>
   <g id="patch_12">
    <path d="M 407.93 231.228 
Q 407.93 241.537953 407.93 251.847905 
L 413.43 251.847905 
Q 410.43 257.845953 407.43 263.844 
Q 404.43 257.845953 401.43 251.847905 
L 406.93 251.847905 
Q 406.93 241.537953 406.93 231.228 
L 407.93 231.228 
z
" style="fill:#ffffff;stroke:#000000;stroke-linecap:round;stroke-width:0.01;"/>
   </g>
   <g id="patch_13">
    <path d="M 407.93 84.456 
Q 407.93 107.810163 407.93 131.164326 
L 413.43 131.164326 
Q 410.43 137.164563 407.43 143.1648 
Q 404.43 137.164563 401.43 131.164326 
L 406.93 131.164326 
Q 406.93 107.810163 406.93 84.456 
L 407.93 84.456 
z
" style="fill:#ffffff;stroke:#000000;stroke-linecap:round;stroke-width:0.01;"/>
   </g>
   <g id="patch_14">
    <path d="M 406.93 345.384 
Q 406.93 322.029837 406.93 298.675674 
L 401.43 298.675674 
Q 404.43 292.675437 407.43 286.6752 
Q 410.43 292.675437 413.43 298.675674 
L 407.93 298.675674 
Q 407.93 322.029837 407.93 345.384 
L 406.93 345.384 
z
" style="fill:#ffffff;stroke:#000000;stroke-linecap:round;stroke-width:0.01;"/>
   </g>
   <g id="patch_15">
    <path d="M 507.37 198.612 
Q 507.37 180.150536 507.37 161.689072 
L 501.87 161.689072 
Q 504.87 155.688536 507.87 149.688 
Q 510.87 155.688536 513.87 161.689072 
L 508.37 161.689072 
Q 508.37 180.150536 508.37 198.612 
L 507.37 198.612 
z
" style="fill:#ffffff;stroke:#000000;stroke-linecap:round;stroke-width:0.01;"/>
   </g>
   <g id="patch_16">
    <path d="M 508.37 231.228 
Q 508.37 249.689464 508.37 268.150928 
L 513.87 268.150928 
Q 510.87 274.151464 507.87 280.152 
Q 504.87 274.151464 501.87 268.150928 
L 507.37 268.150928 
Q 507.37 249.689464 507.37 231.228 
L 508.37 231.228 
z
" style="fill:#ffffff;stroke:#000000;stroke-linecap:round;stroke-width:0.01;"/>
   </g>
   <g id="patch_17">
    <path d="M 508.37 84.456 
Q 508.37 94.765953 508.37 105.075905 
L 513.87 105.075905 
Q 510.87 111.073953 507.87 117.072 
Q 504.87 111.073953 501.87 105.075905 
L 507.37 105.075905 
Q 507.37 94.765953 507.37 84.456 
L 508.37 84.456 
z
" style="fill:#ffffff;stroke:#000000;stroke-linecap:round;stroke-width:0.01;"/>
   </g>
   <g id="patch_18">
    <path d="M 507.37 345.384 
Q 507.37 335.074047 507.37 324.764095 
L 501.87 324.764095 
Q 504.87 318.766047 507.87 312.768 
Q 510.87 318.766047 513.87 324.764095 
L 508.37 324.764095 
Q 508.37 335.074047 508.37 345.384 
L 507.37 345.384 
z
" style="fill:#ffffff;stroke:#000000;stroke-linecap:round;stroke-width:0.01;"/>
   </g>
   <g id="legend_1">
    <g id="patch_19">
     <path d="M 88 103.874375 
L 220.921875 103.874375 
Q 222.921875 103.874375 222.921875 101.874375 
L 222.921875 58.84 
Q 222.921875 56.84 220.921875 56.84 
L 88 56.84 
Q 86 56.84 86 58.84 
L 86 101.874375 
Q 86 103.874375 88 103.874375 
z
" style="fill:#ffffff;opacity:0.8;stroke:#ffffff;stroke-linejoin:miter;"/>
    </g>
    <g id="line2d_20">
     <path d="M 90 64.938437 
L 110 64.938437 
" style="fill:none;stroke:#00ffff;stroke-linecap:square;stroke-width:3;"/>
    </g>
    <g id="line2d_21"/>
    <g id="text_17">
     <!-- stable fixed point -->
     <defs>
      <path d="M 44.28125 53.078125 
L 44.28125 44.578125 
Q 40.484375 46.53125 36.375 47.5 
Q 32.28125 48.484375 27.875 48.484375 
Q 21.1875 48.484375 17.84375 46.4375 
Q 14.5 44.390625 14.5 40.28125 
Q 14.5 37.15625 16.890625 35.375 
Q 19.28125 33.59375 26.515625 31.984375 
L 29.59375 31.296875 
Q 39.15625 29.25 43.1875 25.515625 
Q 47.21875 21.78125 47.21875 15.09375 
Q 47.21875 7.46875 41.1875 3.015625 
Q 35.15625 -1.421875 24.609375 -1.421875 
Q 20.21875 -1.421875 15.453125 -0.5625 
Q 10.6875 0.296875 5.421875 2 
L 5.421875 11.28125 
Q 10.40625 8.6875 15.234375 7.390625 
Q 20.0625 6.109375 24.8125 6.109375 
Q 31.15625 6.109375 34.5625 8.28125 
Q 37.984375 10.453125 37.984375 14.40625 
Q 37.984375 18.0625 35.515625 20.015625 
Q 33.0625 21.96875 24.703125 23.78125 
L 21.578125 24.515625 
Q 13.234375 26.265625 9.515625 29.90625 
Q 5.8125 33.546875 5.8125 39.890625 
Q 5.8125 47.609375 11.28125 51.796875 
Q 16.75 56 26.8125 56 
Q 31.78125 56 36.171875 55.265625 
Q 40.578125 54.546875 44.28125 53.078125 
z
" id="DejaVuSans-73"/>
      <path d="M 34.28125 27.484375 
Q 23.390625 27.484375 19.1875 25 
Q 14.984375 22.515625 14.984375 16.5 
Q 14.984375 11.71875 18.140625 8.90625 
Q 21.296875 6.109375 26.703125 6.109375 
Q 34.1875 6.109375 38.703125 11.40625 
Q 43.21875 16.703125 43.21875 25.484375 
L 43.21875 27.484375 
z
M 52.203125 31.203125 
L 52.203125 0 
L 43.21875 0 
L 43.21875 8.296875 
Q 40.140625 3.328125 35.546875 0.953125 
Q 30.953125 -1.421875 24.3125 -1.421875 
Q 15.921875 -1.421875 10.953125 3.296875 
Q 6 8.015625 6 15.921875 
Q 6 25.140625 12.171875 29.828125 
Q 18.359375 34.515625 30.609375 34.515625 
L 43.21875 34.515625 
L 43.21875 35.40625 
Q 43.21875 41.609375 39.140625 45 
Q 35.0625 48.390625 27.6875 48.390625 
Q 23 48.390625 18.546875 47.265625 
Q 14.109375 46.140625 10.015625 43.890625 
L 10.015625 52.203125 
Q 14.9375 54.109375 19.578125 55.046875 
Q 24.21875 56 28.609375 56 
Q 40.484375 56 46.34375 49.84375 
Q 52.203125 43.703125 52.203125 31.203125 
z
" id="DejaVuSans-61"/>
      <path d="M 48.6875 27.296875 
Q 48.6875 37.203125 44.609375 42.84375 
Q 40.53125 48.484375 33.40625 48.484375 
Q 26.265625 48.484375 22.1875 42.84375 
Q 18.109375 37.203125 18.109375 27.296875 
Q 18.109375 17.390625 22.1875 11.75 
Q 26.265625 6.109375 33.40625 6.109375 
Q 40.53125 6.109375 44.609375 11.75 
Q 48.6875 17.390625 48.6875 27.296875 
z
M 18.109375 46.390625 
Q 20.953125 51.265625 25.265625 53.625 
Q 29.59375 56 35.59375 56 
Q 45.5625 56 51.78125 48.09375 
Q 58.015625 40.1875 58.015625 27.296875 
Q 58.015625 14.40625 51.78125 6.484375 
Q 45.5625 -1.421875 35.59375 -1.421875 
Q 29.59375 -1.421875 25.265625 0.953125 
Q 20.953125 3.328125 18.109375 8.203125 
L 18.109375 0 
L 9.078125 0 
L 9.078125 75.984375 
L 18.109375 75.984375 
z
" id="DejaVuSans-62"/>
      <path d="M 9.421875 75.984375 
L 18.40625 75.984375 
L 18.40625 0 
L 9.421875 0 
z
" id="DejaVuSans-6c"/>
     </defs>
     <g transform="translate(118 68.438437)scale(0.1 -0.1)">
      <use xlink:href="#DejaVuSans-73"/>
      <use x="52.099609" xlink:href="#DejaVuSans-74"/>
      <use x="91.308594" xlink:href="#DejaVuSans-61"/>
      <use x="152.587891" xlink:href="#DejaVuSans-62"/>
      <use x="216.064453" xlink:href="#DejaVuSans-6c"/>
      <use x="243.847656" xlink:href="#DejaVuSans-65"/>
      <use x="305.371094" xlink:href="#DejaVuSans-20"/>
      <use x="337.158203" xlink:href="#DejaVuSans-66"/>
      <use x="372.363281" xlink:href="#DejaVuSans-69"/>
      <use x="400.146484" xlink:href="#DejaVuSans-78"/>
      <use x="459.279297" xlink:href="#DejaVuSans-65"/>
      <use x="520.802734" xlink:href="#DejaVuSans-64"/>
      <use x="584.279297" xlink:href="#DejaVuSans-20"/>
      <use x="616.066406" xlink:href="#DejaVuSans-70"/>
      <use x="679.542969" xlink:href="#DejaVuSans-6f"/>
      <use x="740.724609" xlink:href="#DejaVuSans-69"/>
      <use x="768.507812" xlink:href="#DejaVuSans-6e"/>
      <use x="831.886719" xlink:href="#DejaVuSans-74"/>
     </g>
    </g>
    <g id="line2d_22">
     <path d="M 90 79.616562 
L 110 79.616562 
" style="fill:none;stroke:#800080;stroke-linecap:square;stroke-width:3;"/>
    </g>
    <g id="line2d_23"/>
    <g id="text_18">
     <!-- unstable fixed point -->
     <defs>
      <path d="M 8.5 21.578125 
L 8.5 54.6875 
L 17.484375 54.6875 
L 17.484375 21.921875 
Q 17.484375 14.15625 20.5 10.265625 
Q 23.53125 6.390625 29.59375 6.390625 
Q 36.859375 6.390625 41.078125 11.03125 
Q 45.3125 15.671875 45.3125 23.6875 
L 45.3125 54.6875 
L 54.296875 54.6875 
L 54.296875 0 
L 45.3125 0 
L 45.3125 8.40625 
Q 42.046875 3.421875 37.71875 1 
Q 33.40625 -1.421875 27.6875 -1.421875 
Q 18.265625 -1.421875 13.375 4.4375 
Q 8.5 10.296875 8.5 21.578125 
z
M 31.109375 56 
z
" id="DejaVuSans-75"/>
     </defs>
     <g transform="translate(118 83.116562)scale(0.1 -0.1)">
      <use xlink:href="#DejaVuSans-75"/>
      <use x="63.378906" xlink:href="#DejaVuSans-6e"/>
      <use x="126.757812" xlink:href="#DejaVuSans-73"/>
      <use x="178.857422" xlink:href="#DejaVuSans-74"/>
      <use x="218.066406" xlink:href="#DejaVuSans-61"/>
      <use x="279.345703" xlink:href="#DejaVuSans-62"/>
      <use x="342.822266" xlink:href="#DejaVuSans-6c"/>
      <use x="370.605469" xlink:href="#DejaVuSans-65"/>
      <use x="432.128906" xlink:href="#DejaVuSans-20"/>
      <use x="463.916016" xlink:href="#DejaVuSans-66"/>
      <use x="499.121094" xlink:href="#DejaVuSans-69"/>
      <use x="526.904297" xlink:href="#DejaVuSans-78"/>
      <use x="586.037109" xlink:href="#DejaVuSans-65"/>
      <use x="647.560547" xlink:href="#DejaVuSans-64"/>
      <use x="711.037109" xlink:href="#DejaVuSans-20"/>
      <use x="742.824219" xlink:href="#DejaVuSans-70"/>
      <use x="806.300781" xlink:href="#DejaVuSans-6f"/>
      <use x="867.482422" xlink:href="#DejaVuSans-69"/>
      <use x="895.265625" xlink:href="#DejaVuSans-6e"/>
      <use x="958.644531" xlink:href="#DejaVuSans-74"/>
     </g>
    </g>
    <g id="line2d_24"/>
    <g id="line2d_25">
     <g>
      <use style="fill:#ffa500;stroke:#ffa500;" x="100" xlink:href="#m7ab326e0b1" y="94.294687"/>
     </g>
    </g>
    <g id="text_19">
     <!-- marginal fixed point -->
     <defs>
      <path d="M 52 44.1875 
Q 55.375 50.25 60.0625 53.125 
Q 64.75 56 71.09375 56 
Q 79.640625 56 84.28125 50.015625 
Q 88.921875 44.046875 88.921875 33.015625 
L 88.921875 0 
L 79.890625 0 
L 79.890625 32.71875 
Q 79.890625 40.578125 77.09375 44.375 
Q 74.3125 48.1875 68.609375 48.1875 
Q 61.625 48.1875 57.5625 43.546875 
Q 53.515625 38.921875 53.515625 30.90625 
L 53.515625 0 
L 44.484375 0 
L 44.484375 32.71875 
Q 44.484375 40.625 41.703125 44.40625 
Q 38.921875 48.1875 33.109375 48.1875 
Q 26.21875 48.1875 22.15625 43.53125 
Q 18.109375 38.875 18.109375 30.90625 
L 18.109375 0 
L 9.078125 0 
L 9.078125 54.6875 
L 18.109375 54.6875 
L 18.109375 46.1875 
Q 21.1875 51.21875 25.484375 53.609375 
Q 29.78125 56 35.6875 56 
Q 41.65625 56 45.828125 52.96875 
Q 50 49.953125 52 44.1875 
z
" id="DejaVuSans-6d"/>
      <path d="M 41.109375 46.296875 
Q 39.59375 47.171875 37.8125 47.578125 
Q 36.03125 48 33.890625 48 
Q 26.265625 48 22.1875 43.046875 
Q 18.109375 38.09375 18.109375 28.8125 
L 18.109375 0 
L 9.078125 0 
L 9.078125 54.6875 
L 18.109375 54.6875 
L 18.109375 46.1875 
Q 20.953125 51.171875 25.484375 53.578125 
Q 30.03125 56 36.53125 56 
Q 37.453125 56 38.578125 55.875 
Q 39.703125 55.765625 41.0625 55.515625 
z
" id="DejaVuSans-72"/>
      <path d="M 45.40625 27.984375 
Q 45.40625 37.75 41.375 43.109375 
Q 37.359375 48.484375 30.078125 48.484375 
Q 22.859375 48.484375 18.828125 43.109375 
Q 14.796875 37.75 14.796875 27.984375 
Q 14.796875 18.265625 18.828125 12.890625 
Q 22.859375 7.515625 30.078125 7.515625 
Q 37.359375 7.515625 41.375 12.890625 
Q 45.40625 18.265625 45.40625 27.984375 
z
M 54.390625 6.78125 
Q 54.390625 -7.171875 48.1875 -13.984375 
Q 42 -20.796875 29.203125 -20.796875 
Q 24.46875 -20.796875 20.265625 -20.09375 
Q 16.0625 -19.390625 12.109375 -17.921875 
L 12.109375 -9.1875 
Q 16.0625 -11.328125 19.921875 -12.34375 
Q 23.78125 -13.375 27.78125 -13.375 
Q 36.625 -13.375 41.015625 -8.765625 
Q 45.40625 -4.15625 45.40625 5.171875 
L 45.40625 9.625 
Q 42.625 4.78125 38.28125 2.390625 
Q 33.9375 0 27.875 0 
Q 17.828125 0 11.671875 7.65625 
Q 5.515625 15.328125 5.515625 27.984375 
Q 5.515625 40.671875 11.671875 48.328125 
Q 17.828125 56 27.875 56 
Q 33.9375 56 38.28125 53.609375 
Q 42.625 51.21875 45.40625 46.390625 
L 45.40625 54.6875 
L 54.390625 54.6875 
z
" id="DejaVuSans-67"/>
     </defs>
     <g transform="translate(118 97.794687)scale(0.1 -0.1)">
      <use xlink:href="#DejaVuSans-6d"/>
      <use x="97.412109" xlink:href="#DejaVuSans-61"/>
      <use x="158.691406" xlink:href="#DejaVuSans-72"/>
      <use x="199.789062" xlink:href="#DejaVuSans-67"/>
      <use x="263.265625" xlink:href="#DejaVuSans-69"/>
      <use x="291.048828" xlink:href="#DejaVuSans-6e"/>
      <use x="354.427734" xlink:href="#DejaVuSans-61"/>
      <use x="415.707031" xlink:href="#DejaVuSans-6c"/>
      <use x="443.490234" xlink:href="#DejaVuSans-20"/>
      <use x="475.277344" xlink:href="#DejaVuSans-66"/>
      <use x="510.482422" xlink:href="#DejaVuSans-69"/>
      <use x="538.265625" xlink:href="#DejaVuSans-78"/>
      <use x="597.398438" xlink:href="#DejaVuSans-65"/>
      <use x="658.921875" xlink:href="#DejaVuSans-64"/>
      <use x="722.398438" xlink:href="#DejaVuSans-20"/>
      <use x="754.185547" xlink:href="#DejaVuSans-70"/>
      <use x="817.662109" xlink:href="#DejaVuSans-6f"/>
      <use x="878.84375" xlink:href="#DejaVuSans-69"/>
      <use x="906.626953" xlink:href="#DejaVuSans-6e"/>
      <use x="970.005859" xlink:href="#DejaVuSans-74"/>
     </g>
    </g>
   </g>
  </g>
 </g>
 <defs>
  <clipPath id="p52b44bf2a1">
   <rect height="326.16" width="502.2" x="81" y="51.84"/>
  </clipPath>
 </defs>
</svg>
