<?xml version="1.0" encoding="utf-8" standalone="no"?>
<!DOCTYPE svg PUBLIC "-//W3C//DTD SVG 1.1//EN"
  "http://www.w3.org/Graphics/SVG/1.1/DTD/svg11.dtd">
<!-- Created with matplotlib (http://matplotlib.org/) -->
<svg height="432pt" version="1.1" viewBox="0 0 648 432" width="648pt" xmlns="http://www.w3.org/2000/svg" xmlns:xlink="http://www.w3.org/1999/xlink">
 <defs>
  <style type="text/css">
*{stroke-linecap:butt;stroke-linejoin:round;}
  </style>
 </defs>
 <g id="figure_1">
  <g id="patch_1">
   <path d="M 0 432 
L 648 432 
L 648 0 
L 0 0 
z
" style="fill:none;"/>
  </g>
  <g id="axes_1">
   <g id="patch_2">
    <path d="M 81 378 
L 583.2 378 
L 583.2 51.84 
L 81 51.84 
z
" style="fill:none;"/>
   </g>
   <g id="line2d_1">
    <path clip-path="url(#p982982b303)" d="M 332.1 214.92 
L 337.22449 200.185593 
L 342.34898 194.082402 
L 347.473469 189.399259 
L 352.597959 185.451186 
L 357.722449 181.972865 
L 362.846939 178.828221 
L 367.971429 175.936424 
L 373.095918 173.244804 
L 378.220408 170.716779 
L 383.344898 168.325714 
L 388.469388 166.051501 
L 393.593878 163.878517 
L 398.718367 161.79434 
L 403.842857 159.788898 
L 408.967347 157.853888 
L 414.091837 155.982372 
L 419.216327 154.168484 
L 424.340816 152.407206 
L 429.465306 150.694209 
L 434.589796 149.025729 
L 439.714286 147.398465 
L 444.838776 145.809506 
L 449.963265 144.256267 
L 455.087755 142.736443 
L 460.212245 141.247966 
L 465.336735 139.788972 
L 470.461224 138.357776 
L 475.585714 136.952847 
L 480.710204 135.572791 
L 485.834694 134.21633 
L 490.959184 132.882294 
L 496.083673 131.569608 
L 501.208163 130.277277 
L 506.332653 129.004382 
L 511.457143 127.750073 
L 516.581633 126.513559 
L 521.706122 125.294102 
L 526.830612 124.091016 
L 531.955102 122.903659 
L 537.079592 121.731429 
L 542.204082 120.573762 
L 547.328571 119.43013 
L 552.453061 118.300033 
L 557.577551 117.183002 
L 562.702041 116.078594 
L 567.826531 114.98639 
L 572.95102 113.905996 
L 578.07551 112.837035 
L 583.2 111.779152 
" style="fill:none;stroke:#00ffff;stroke-linecap:square;stroke-width:3;"/>
   </g>
   <g id="line2d_2">
    <path clip-path="url(#p982982b303)" d="M 332.1 214.92 
L 337.22449 229.654407 
L 342.34898 235.757598 
L 347.473469 240.440741 
L 352.597959 244.388814 
L 357.722449 247.867135 
L 362.846939 251.011779 
L 367.971429 253.903576 
L 373.095918 256.595196 
L 378.220408 259.123221 
L 383.344898 261.514286 
L 388.469388 263.788499 
L 393.593878 265.961483 
L 398.718367 268.04566 
L 403.842857 270.051102 
L 408.967347 271.986112 
L 414.091837 273.857628 
L 419.216327 275.671516 
L 424.340816 277.432794 
L 429.465306 279.145791 
L 434.589796 280.814271 
L 439.714286 282.441535 
L 444.838776 284.030494 
L 449.963265 285.583733 
L 455.087755 287.103557 
L 460.212245 288.592034 
L 465.336735 290.051028 
L 470.461224 291.482224 
L 475.585714 292.887153 
L 480.710204 294.267209 
L 485.834694 295.62367 
L 490.959184 296.957706 
L 496.083673 298.270392 
L 501.208163 299.562723 
L 506.332653 300.835618 
L 511.457143 302.089927 
L 516.581633 303.326441 
L 521.706122 304.545898 
L 526.830612 305.748984 
L 531.955102 306.936341 
L 537.079592 308.108571 
L 542.204082 309.266238 
L 547.328571 310.40987 
L 552.453061 311.539967 
L 557.577551 312.656998 
L 562.702041 313.761406 
L 567.826531 314.85361 
L 572.95102 315.934004 
L 578.07551 317.002965 
L 583.2 318.060848 
" style="fill:none;stroke:#800080;stroke-linecap:square;stroke-width:3;"/>
   </g>
   <g id="line2d_3">
    <defs>
     <path d="M 0 3 
C 0.795609 3 1.55874 2.683901 2.12132 2.12132 
C 2.683901 1.55874 3 0.795609 3 0 
C 3 -0.795609 2.683901 -1.55874 2.12132 -2.12132 
C 1.55874 -2.683901 0.795609 -3 0 -3 
C -0.795609 -3 -1.55874 -2.683901 -2.12132 -2.12132 
C -2.683901 -1.55874 -3 -0.795609 -3 0 
C -3 0.795609 -2.683901 1.55874 -2.12132 2.12132 
C -1.55874 2.683901 -0.795609 3 0 3 
z
" id="mdeb3b157ae" style="stroke:#ffa500;"/>
    </defs>
    <g clip-path="url(#p982982b303)">
     <use style="fill:#ffa500;stroke:#ffa500;" x="332.1" xlink:href="#mdeb3b157ae" y="214.92"/>
    </g>
   </g>
   <g id="patch_3">
    <path d="M 81 378 
L 81 51.84 
" style="fill:none;stroke:#ffffff;stroke-linecap:square;stroke-linejoin:miter;stroke-width:0.8;"/>
   </g>
   <g id="patch_4">
    <path d="M 583.2 378 
L 583.2 51.84 
" style="fill:none;stroke:#ffffff;stroke-linecap:square;stroke-linejoin:miter;stroke-width:0.8;"/>
   </g>
   <g id="patch_5">
    <path d="M 81 378 
L 583.2 378 
" style="fill:none;stroke:#ffffff;stroke-linecap:square;stroke-linejoin:miter;stroke-width:0.8;"/>
   </g>
   <g id="patch_6">
    <path d="M 81 51.84 
L 583.2 51.84 
" style="fill:none;stroke:#ffffff;stroke-linecap:square;stroke-linejoin:miter;stroke-width:0.8;"/>
   </g>
   <g id="patch_7">
    <path d="M 207.05 84.456 
Q 207.05 208.921953 207.05 333.387905 
L 212.55 333.387905 
Q 209.55 339.385953 206.55 345.384 
Q 203.55 339.385953 200.55 333.387905 
L 206.05 333.387905 
Q 206.05 208.921953 206.05 84.456 
L 207.05 84.456 
z
" style="fill:#ffffff;stroke:#000000;stroke-linecap:round;stroke-width:0.01;"/>
   </g>
   <g id="patch_8">
    <path d="M 307.49 84.456 
Q 307.49 208.921953 307.49 333.387905 
L 312.99 333.387905 
Q 309.99 339.385953 306.99 345.384 
Q 303.99 339.385953 300.99 333.387905 
L 306.49 333.387905 
Q 306.49 208.921953 306.49 84.456 
L 307.49 84.456 
z
" style="fill:#ffffff;stroke:#000000;stroke-linecap:round;stroke-width:0.01;"/>
   </g>
   <g id="patch_9">
    <path d="M 407.93 280.152 
Q 407.93 306.769953 407.93 333.387905 
L 413.43 333.387905 
Q 410.43 339.385953 407.43 345.384 
Q 404.43 339.385953 401.43 333.387905 
L 406.93 333.387905 
Q 406.93 306.769953 406.93 280.152 
L 407.93 280.152 
z
" style="fill:#ffffff;stroke:#000000;stroke-linecap:round;stroke-width:0.01;"/>
   </g>
   <g id="patch_10">
    <path d="M 406.93 263.844 
Q 406.93 220.920536 406.93 177.997072 
L 401.43 177.997072 
Q 404.43 171.996536 407.43 165.996 
Q 410.43 171.996536 413.43 177.997072 
L 407.93 177.997072 
Q 407.93 220.920536 407.93 263.844 
L 406.93 263.844 
z
" style="fill:#ffffff;stroke:#000000;stroke-linecap:round;stroke-width:0.01;"/>
   </g>
   <g id="patch_11">
    <path d="M 407.93 84.456 
Q 407.93 111.073953 407.93 137.691905 
L 413.43 137.691905 
Q 410.43 143.689953 407.43 149.688 
Q 404.43 143.689953 401.43 137.691905 
L 406.93 137.691905 
Q 406.93 111.073953 406.93 84.456 
L 407.93 84.456 
z
" style="fill:#ffffff;stroke:#000000;stroke-linecap:round;stroke-width:0.01;"/>
   </g>
   <g id="patch_12">
    <path d="M 508.37 312.768 
Q 508.37 323.077953 508.37 333.387905 
L 513.87 333.387905 
Q 510.87 339.385953 507.87 345.384 
Q 504.87 339.385953 501.87 333.387905 
L 507.37 333.387905 
Q 507.37 323.077953 507.37 312.768 
L 508.37 312.768 
z
" style="fill:#ffffff;stroke:#000000;stroke-linecap:round;stroke-width:0.01;"/>
   </g>
   <g id="patch_13">
    <path d="M 507.37 289.9368 
Q 507.37 220.920337 507.37 151.903873 
L 501.87 151.903873 
Q 504.87 145.903537 507.87 139.9032 
Q 510.87 145.903537 513.87 151.903873 
L 508.37 151.903873 
Q 508.37 220.920337 508.37 289.9368 
L 507.37 289.9368 
z
" style="fill:#ffffff;stroke:#000000;stroke-linecap:round;stroke-width:0.01;"/>
   </g>
   <g id="patch_14">
    <path d="M 508.37 84.456 
Q 508.37 94.765953 508.37 105.075905 
L 513.87 105.075905 
Q 510.87 111.073953 507.87 117.072 
Q 504.87 111.073953 501.87 105.075905 
L 507.37 105.075905 
Q 507.37 94.765953 507.37 84.456 
L 508.37 84.456 
z
" style="fill:#ffffff;stroke:#000000;stroke-linecap:round;stroke-width:0.01;"/>
   </g>
  </g>
 </g>
 <defs>
  <clipPath id="p982982b303">
   <rect height="326.16" width="502.2" x="81" y="51.84"/>
  </clipPath>
 </defs>
</svg>
