<?xml version="1.0" encoding="utf-8" standalone="no"?>
<!DOCTYPE svg PUBLIC "-//W3C//DTD SVG 1.1//EN"
  "http://www.w3.org/Graphics/SVG/1.1/DTD/svg11.dtd">
<!-- Created with matplotlib (http://matplotlib.org/) -->
<svg height="432pt" version="1.1" viewBox="0 0 648 432" width="648pt" xmlns="http://www.w3.org/2000/svg" xmlns:xlink="http://www.w3.org/1999/xlink">
 <defs>
  <style type="text/css">
*{stroke-linecap:butt;stroke-linejoin:round;}
  </style>
 </defs>
 <g id="figure_1">
  <g id="patch_1">
   <path d="M 0 432 
L 648 432 
L 648 0 
L 0 0 
z
" style="fill:none;"/>
  </g>
  <g id="axes_1">
   <g id="patch_2">
    <path d="M 81 378 
L 583.2 378 
L 583.2 51.84 
L 81 51.84 
z
" style="fill:none;"/>
   </g>
   <g id="line2d_1">
    <path clip-path="url(#pc14446adfc)" d="M 81 214.92 
L 86.12449 214.92 
L 91.24898 214.92 
L 96.373469 214.92 
L 101.497959 214.92 
L 106.622449 214.92 
L 111.746939 214.92 
L 116.871429 214.92 
L 121.995918 214.92 
L 127.120408 214.92 
L 132.244898 214.92 
L 137.369388 214.92 
L 142.493878 214.92 
L 147.618367 214.92 
L 152.742857 214.92 
L 157.867347 214.92 
L 162.991837 214.92 
L 168.116327 214.92 
L 173.240816 214.92 
L 178.365306 214.92 
L 183.489796 214.92 
L 188.614286 214.92 
L 193.738776 214.92 
L 198.863265 214.92 
L 203.987755 214.92 
L 209.112245 214.92 
L 214.236735 214.92 
L 219.361224 214.92 
L 224.485714 214.92 
L 229.610204 214.92 
L 234.734694 214.92 
L 239.859184 214.92 
L 244.983673 214.92 
L 250.108163 214.92 
L 255.232653 214.92 
L 260.357143 214.92 
L 265.481633 214.92 
L 270.606122 214.92 
L 275.730612 214.92 
L 280.855102 214.92 
L 285.979592 214.92 
L 291.104082 214.92 
L 296.228571 214.92 
L 301.353061 214.92 
L 306.477551 214.92 
L 311.602041 214.92 
L 316.726531 214.92 
L 321.85102 214.92 
L 326.97551 214.92 
L 332.1 214.92 
" style="fill:none;stroke:#00ffff;stroke-linecap:square;stroke-width:3;"/>
   </g>
   <g id="line2d_2">
    <path clip-path="url(#pc14446adfc)" d="M 81 111.779152 
L 86.12449 112.837035 
L 91.24898 113.905996 
L 96.373469 114.98639 
L 101.497959 116.078594 
L 106.622449 117.183002 
L 111.746939 118.300033 
L 116.871429 119.43013 
L 121.995918 120.573762 
L 127.120408 121.731429 
L 132.244898 122.903659 
L 137.369388 124.091016 
L 142.493878 125.294102 
L 147.618367 126.513559 
L 152.742857 127.750073 
L 157.867347 129.004382 
L 162.991837 130.277277 
L 168.116327 131.569608 
L 173.240816 132.882294 
L 178.365306 134.21633 
L 183.489796 135.572791 
L 188.614286 136.952847 
L 193.738776 138.357776 
L 198.863265 139.788972 
L 203.987755 141.247966 
L 209.112245 142.736443 
L 214.236735 144.256267 
L 219.361224 145.809506 
L 224.485714 147.398465 
L 229.610204 149.025729 
L 234.734694 150.694209 
L 239.859184 152.407206 
L 244.983673 154.168484 
L 250.108163 155.982372 
L 255.232653 157.853888 
L 260.357143 159.788898 
L 265.481633 161.79434 
L 270.606122 163.878517 
L 275.730612 166.051501 
L 280.855102 168.325714 
L 285.979592 170.716779 
L 291.104082 173.244804 
L 296.228571 175.936424 
L 301.353061 178.828221 
L 306.477551 181.972865 
L 311.602041 185.451186 
L 316.726531 189.399259 
L 321.85102 194.082402 
L 326.97551 200.185593 
L 332.1 214.92 
" style="fill:none;stroke:#800080;stroke-linecap:square;stroke-width:3;"/>
   </g>
   <g id="line2d_3">
    <path clip-path="url(#pc14446adfc)" d="M 81 318.060848 
L 86.12449 317.002965 
L 91.24898 315.934004 
L 96.373469 314.85361 
L 101.497959 313.761406 
L 106.622449 312.656998 
L 111.746939 311.539967 
L 116.871429 310.40987 
L 121.995918 309.266238 
L 127.120408 308.108571 
L 132.244898 306.936341 
L 137.369388 305.748984 
L 142.493878 304.545898 
L 147.618367 303.326441 
L 152.742857 302.089927 
L 157.867347 300.835618 
L 162.991837 299.562723 
L 168.116327 298.270392 
L 173.240816 296.957706 
L 178.365306 295.62367 
L 183.489796 294.267209 
L 188.614286 292.887153 
L 193.738776 291.482224 
L 198.863265 290.051028 
L 203.987755 288.592034 
L 209.112245 287.103557 
L 214.236735 285.583733 
L 219.361224 284.030494 
L 224.485714 282.441535 
L 229.610204 280.814271 
L 234.734694 279.145791 
L 239.859184 277.432794 
L 244.983673 275.671516 
L 250.108163 273.857628 
L 255.232653 271.986112 
L 260.357143 270.051102 
L 265.481633 268.04566 
L 270.606122 265.961483 
L 275.730612 263.788499 
L 280.855102 261.514286 
L 285.979592 259.123221 
L 291.104082 256.595196 
L 296.228571 253.903576 
L 301.353061 251.011779 
L 306.477551 247.867135 
L 311.602041 244.388814 
L 316.726531 240.440741 
L 321.85102 235.757598 
L 326.97551 229.654407 
L 332.1 214.92 
" style="fill:none;stroke:#800080;stroke-linecap:square;stroke-width:3;"/>
   </g>
   <g id="line2d_4">
    <path clip-path="url(#pc14446adfc)" d="M 332.1 214.92 
L 337.22449 214.92 
L 342.34898 214.92 
L 347.473469 214.92 
L 352.597959 214.92 
L 357.722449 214.92 
L 362.846939 214.92 
L 367.971429 214.92 
L 373.095918 214.92 
L 378.220408 214.92 
L 383.344898 214.92 
L 388.469388 214.92 
L 393.593878 214.92 
L 398.718367 214.92 
L 403.842857 214.92 
L 408.967347 214.92 
L 414.091837 214.92 
L 419.216327 214.92 
L 424.340816 214.92 
L 429.465306 214.92 
L 434.589796 214.92 
L 439.714286 214.92 
L 444.838776 214.92 
L 449.963265 214.92 
L 455.087755 214.92 
L 460.212245 214.92 
L 465.336735 214.92 
L 470.461224 214.92 
L 475.585714 214.92 
L 480.710204 214.92 
L 485.834694 214.92 
L 490.959184 214.92 
L 496.083673 214.92 
L 501.208163 214.92 
L 506.332653 214.92 
L 511.457143 214.92 
L 516.581633 214.92 
L 521.706122 214.92 
L 526.830612 214.92 
L 531.955102 214.92 
L 537.079592 214.92 
L 542.204082 214.92 
L 547.328571 214.92 
L 552.453061 214.92 
L 557.577551 214.92 
L 562.702041 214.92 
L 567.826531 214.92 
L 572.95102 214.92 
L 578.07551 214.92 
L 583.2 214.92 
" style="fill:none;stroke:#800080;stroke-linecap:square;stroke-width:3;"/>
   </g>
   <g id="line2d_5">
    <defs>
     <path d="M 0 3 
C 0.795609 3 1.55874 2.683901 2.12132 2.12132 
C 2.683901 1.55874 3 0.795609 3 0 
C 3 -0.795609 2.683901 -1.55874 2.12132 -2.12132 
C 1.55874 -2.683901 0.795609 -3 0 -3 
C -0.795609 -3 -1.55874 -2.683901 -2.12132 -2.12132 
C -2.683901 -1.55874 -3 -0.795609 -3 0 
C -3 0.795609 -2.683901 1.55874 -2.12132 2.12132 
C -1.55874 2.683901 -0.795609 3 0 3 
z
" id="mc759fe51ef" style="stroke:#ffa500;"/>
    </defs>
    <g clip-path="url(#pc14446adfc)">
     <use style="fill:#ffa500;stroke:#ffa500;" x="332.1" xlink:href="#mc759fe51ef" y="214.92"/>
    </g>
   </g>
   <g id="patch_3">
    <path d="M 81 378 
L 81 51.84 
" style="fill:none;stroke:#ffffff;stroke-linecap:square;stroke-linejoin:miter;stroke-width:0.8;"/>
   </g>
   <g id="patch_4">
    <path d="M 583.2 378 
L 583.2 51.84 
" style="fill:none;stroke:#ffffff;stroke-linecap:square;stroke-linejoin:miter;stroke-width:0.8;"/>
   </g>
   <g id="patch_5">
    <path d="M 81 378 
L 583.2 378 
" style="fill:none;stroke:#ffffff;stroke-linecap:square;stroke-linejoin:miter;stroke-width:0.8;"/>
   </g>
   <g id="patch_6">
    <path d="M 81 51.84 
L 583.2 51.84 
" style="fill:none;stroke:#ffffff;stroke-linecap:square;stroke-linejoin:miter;stroke-width:0.8;"/>
   </g>
   <g id="patch_7">
    <path d="M 357.71 247.536 
Q 357.71 290.459464 357.71 333.382928 
L 363.21 333.382928 
Q 360.21 339.383464 357.21 345.384 
Q 354.21 339.383464 351.21 333.382928 
L 356.71 333.382928 
Q 356.71 290.459464 356.71 247.536 
L 357.71 247.536 
z
" style="fill:#ffffff;stroke:#000000;stroke-linecap:round;stroke-width:0.01;"/>
   </g>
   <g id="patch_8">
    <path d="M 356.71 182.304 
Q 356.71 139.380536 356.71 96.457072 
L 351.21 96.457072 
Q 354.21 90.456536 357.21 84.456 
Q 360.21 90.456536 363.21 96.457072 
L 357.71 96.457072 
Q 357.71 139.380536 357.71 182.304 
L 356.71 182.304 
z
" style="fill:#ffffff;stroke:#000000;stroke-linecap:round;stroke-width:0.01;"/>
   </g>
   <g id="patch_9">
    <path d="M 458.15 231.228 
Q 458.15 282.305215 458.15 333.382431 
L 463.65 333.382431 
Q 460.65 339.383215 457.65 345.384 
Q 454.65 339.383215 451.65 333.382431 
L 457.15 333.382431 
Q 457.15 282.305215 457.15 231.228 
L 458.15 231.228 
z
" style="fill:#ffffff;stroke:#000000;stroke-linecap:round;stroke-width:0.01;"/>
   </g>
   <g id="patch_10">
    <path d="M 457.15 198.612 
Q 457.15 147.534785 457.15 96.457569 
L 451.65 96.457569 
Q 454.65 90.456785 457.65 84.456 
Q 460.65 90.456785 463.65 96.457569 
L 458.15 96.457569 
Q 458.15 147.534785 458.15 198.612 
L 457.15 198.612 
z
" style="fill:#ffffff;stroke:#000000;stroke-linecap:round;stroke-width:0.01;"/>
   </g>
   <g id="patch_11">
    <path d="M 257.27 165.996 
Q 257.27 176.305953 257.27 186.615905 
L 262.77 186.615905 
Q 259.77 192.613953 256.77 198.612 
Q 253.77 192.613953 250.77 186.615905 
L 256.27 186.615905 
Q 256.27 176.305953 256.27 165.996 
L 257.27 165.996 
z
" style="fill:#ffffff;stroke:#000000;stroke-linecap:round;stroke-width:0.01;"/>
   </g>
   <g id="patch_12">
    <path d="M 256.27 263.844 
Q 256.27 253.534047 256.27 243.224095 
L 250.77 243.224095 
Q 253.77 237.226047 256.77 231.228 
Q 259.77 237.226047 262.77 243.224095 
L 257.27 243.224095 
Q 257.27 253.534047 257.27 263.844 
L 256.27 263.844 
z
" style="fill:#ffffff;stroke:#000000;stroke-linecap:round;stroke-width:0.01;"/>
   </g>
   <g id="patch_13">
    <path d="M 256.27 143.1648 
Q 256.27 119.810637 256.27 96.456474 
L 250.77 96.456474 
Q 253.77 90.456237 256.77 84.456 
Q 259.77 90.456237 262.77 96.456474 
L 257.27 96.456474 
Q 257.27 119.810637 257.27 143.1648 
L 256.27 143.1648 
z
" style="fill:#ffffff;stroke:#000000;stroke-linecap:round;stroke-width:0.01;"/>
   </g>
   <g id="patch_14">
    <path d="M 257.27 286.6752 
Q 257.27 310.029363 257.27 333.383526 
L 262.77 333.383526 
Q 259.77 339.383763 256.77 345.384 
Q 253.77 339.383763 250.77 333.383526 
L 256.27 333.383526 
Q 256.27 310.029363 256.27 286.6752 
L 257.27 286.6752 
z
" style="fill:#ffffff;stroke:#000000;stroke-linecap:round;stroke-width:0.01;"/>
   </g>
   <g id="patch_15">
    <path d="M 156.83 149.688 
Q 156.83 168.149464 156.83 186.610928 
L 162.33 186.610928 
Q 159.33 192.611464 156.33 198.612 
Q 153.33 192.611464 150.33 186.610928 
L 155.83 186.610928 
Q 155.83 168.149464 155.83 149.688 
L 156.83 149.688 
z
" style="fill:#ffffff;stroke:#000000;stroke-linecap:round;stroke-width:0.01;"/>
   </g>
   <g id="patch_16">
    <path d="M 155.83 280.152 
Q 155.83 261.690536 155.83 243.229072 
L 150.33 243.229072 
Q 153.33 237.228536 156.33 231.228 
Q 159.33 237.228536 162.33 243.229072 
L 156.83 243.229072 
Q 156.83 261.690536 156.83 280.152 
L 155.83 280.152 
z
" style="fill:#ffffff;stroke:#000000;stroke-linecap:round;stroke-width:0.01;"/>
   </g>
   <g id="patch_17">
    <path d="M 155.83 117.072 
Q 155.83 106.762047 155.83 96.452095 
L 150.33 96.452095 
Q 153.33 90.454047 156.33 84.456 
Q 159.33 90.454047 162.33 96.452095 
L 156.83 96.452095 
Q 156.83 106.762047 156.83 117.072 
L 155.83 117.072 
z
" style="fill:#ffffff;stroke:#000000;stroke-linecap:round;stroke-width:0.01;"/>
   </g>
   <g id="patch_18">
    <path d="M 156.83 312.768 
Q 156.83 323.077953 156.83 333.387905 
L 162.33 333.387905 
Q 159.33 339.385953 156.33 345.384 
Q 153.33 339.385953 150.33 333.387905 
L 155.83 333.387905 
Q 155.83 323.077953 155.83 312.768 
L 156.83 312.768 
z
" style="fill:#ffffff;stroke:#000000;stroke-linecap:round;stroke-width:0.01;"/>
   </g>
  </g>
 </g>
 <defs>
  <clipPath id="pc14446adfc">
   <rect height="326.16" width="502.2" x="81" y="51.84"/>
  </clipPath>
 </defs>
</svg>
