<?xml version="1.0" encoding="utf-8" standalone="no"?>
<!DOCTYPE svg PUBLIC "-//W3C//DTD SVG 1.1//EN"
  "http://www.w3.org/Graphics/SVG/1.1/DTD/svg11.dtd">
<!-- Created with matplotlib (http://matplotlib.org/) -->
<svg height="432pt" version="1.1" viewBox="0 0 648 432" width="648pt" xmlns="http://www.w3.org/2000/svg" xmlns:xlink="http://www.w3.org/1999/xlink">
 <defs>
  <style type="text/css">
*{stroke-linecap:butt;stroke-linejoin:round;}
  </style>
 </defs>
 <g id="figure_1">
  <g id="patch_1">
   <path d="M 0 432 
L 648 432 
L 648 0 
L 0 0 
z
" style="fill:none;"/>
  </g>
  <g id="axes_1">
   <g id="patch_2">
    <path d="M 81 378 
L 583.2 378 
L 583.2 51.84 
L 81 51.84 
z
" style="fill:none;"/>
   </g>
   <g id="line2d_1">
    <path clip-path="url(#pac8c82c0f1)" d="M 81 378 
L 86.12449 374.671837 
L 91.24898 371.343673 
L 96.373469 368.01551 
L 101.497959 364.687347 
L 106.622449 361.359184 
L 111.746939 358.03102 
L 116.871429 354.702857 
L 121.995918 351.374694 
L 127.120408 348.046531 
L 132.244898 344.718367 
L 137.369388 341.390204 
L 142.493878 338.062041 
L 147.618367 334.733878 
L 152.742857 331.405714 
L 157.867347 328.077551 
L 162.991837 324.749388 
L 168.116327 321.421224 
L 173.240816 318.093061 
L 178.365306 314.764898 
L 183.489796 311.436735 
L 188.614286 308.108571 
L 193.738776 304.780408 
L 198.863265 301.452245 
L 203.987755 298.124082 
L 209.112245 294.795918 
L 214.236735 291.467755 
L 219.361224 288.139592 
L 224.485714 284.811429 
L 229.610204 281.483265 
L 234.734694 278.155102 
L 239.859184 274.826939 
L 244.983673 271.498776 
L 250.108163 268.170612 
L 255.232653 264.842449 
L 260.357143 261.514286 
L 265.481633 258.186122 
L 270.606122 254.857959 
L 275.730612 251.529796 
L 280.855102 248.201633 
L 285.979592 244.873469 
L 291.104082 241.545306 
L 296.228571 238.217143 
L 301.353061 234.88898 
L 306.477551 231.560816 
L 311.602041 228.232653 
L 316.726531 224.90449 
L 321.85102 221.576327 
L 326.97551 218.248163 
L 332.1 214.92 
" style="fill:none;stroke:#800080;stroke-linecap:square;stroke-width:3;"/>
   </g>
   <g id="line2d_2">
    <path clip-path="url(#pac8c82c0f1)" d="M 81 214.92 
L 86.12449 214.92 
L 91.24898 214.92 
L 96.373469 214.92 
L 101.497959 214.92 
L 106.622449 214.92 
L 111.746939 214.92 
L 116.871429 214.92 
L 121.995918 214.92 
L 127.120408 214.92 
L 132.244898 214.92 
L 137.369388 214.92 
L 142.493878 214.92 
L 147.618367 214.92 
L 152.742857 214.92 
L 157.867347 214.92 
L 162.991837 214.92 
L 168.116327 214.92 
L 173.240816 214.92 
L 178.365306 214.92 
L 183.489796 214.92 
L 188.614286 214.92 
L 193.738776 214.92 
L 198.863265 214.92 
L 203.987755 214.92 
L 209.112245 214.92 
L 214.236735 214.92 
L 219.361224 214.92 
L 224.485714 214.92 
L 229.610204 214.92 
L 234.734694 214.92 
L 239.859184 214.92 
L 244.983673 214.92 
L 250.108163 214.92 
L 255.232653 214.92 
L 260.357143 214.92 
L 265.481633 214.92 
L 270.606122 214.92 
L 275.730612 214.92 
L 280.855102 214.92 
L 285.979592 214.92 
L 291.104082 214.92 
L 296.228571 214.92 
L 301.353061 214.92 
L 306.477551 214.92 
L 311.602041 214.92 
L 316.726531 214.92 
L 321.85102 214.92 
L 326.97551 214.92 
L 332.1 214.92 
" style="fill:none;stroke:#00ffff;stroke-linecap:square;stroke-width:3;"/>
   </g>
   <g id="line2d_3">
    <path clip-path="url(#pac8c82c0f1)" d="M 332.1 214.92 
L 337.22449 211.591837 
L 342.34898 208.263673 
L 347.473469 204.93551 
L 352.597959 201.607347 
L 357.722449 198.279184 
L 362.846939 194.95102 
L 367.971429 191.622857 
L 373.095918 188.294694 
L 378.220408 184.966531 
L 383.344898 181.638367 
L 388.469388 178.310204 
L 393.593878 174.982041 
L 398.718367 171.653878 
L 403.842857 168.325714 
L 408.967347 164.997551 
L 414.091837 161.669388 
L 419.216327 158.341224 
L 424.340816 155.013061 
L 429.465306 151.684898 
L 434.589796 148.356735 
L 439.714286 145.028571 
L 444.838776 141.700408 
L 449.963265 138.372245 
L 455.087755 135.044082 
L 460.212245 131.715918 
L 465.336735 128.387755 
L 470.461224 125.059592 
L 475.585714 121.731429 
L 480.710204 118.403265 
L 485.834694 115.075102 
L 490.959184 111.746939 
L 496.083673 108.418776 
L 501.208163 105.090612 
L 506.332653 101.762449 
L 511.457143 98.434286 
L 516.581633 95.106122 
L 521.706122 91.777959 
L 526.830612 88.449796 
L 531.955102 85.121633 
L 537.079592 81.793469 
L 542.204082 78.465306 
L 547.328571 75.137143 
L 552.453061 71.80898 
L 557.577551 68.480816 
L 562.702041 65.152653 
L 567.826531 61.82449 
L 572.95102 58.496327 
L 578.07551 55.168163 
L 583.2 51.84 
" style="fill:none;stroke:#00ffff;stroke-linecap:square;stroke-width:3;"/>
   </g>
   <g id="line2d_4">
    <path clip-path="url(#pac8c82c0f1)" d="M 332.1 214.92 
L 337.22449 214.92 
L 342.34898 214.92 
L 347.473469 214.92 
L 352.597959 214.92 
L 357.722449 214.92 
L 362.846939 214.92 
L 367.971429 214.92 
L 373.095918 214.92 
L 378.220408 214.92 
L 383.344898 214.92 
L 388.469388 214.92 
L 393.593878 214.92 
L 398.718367 214.92 
L 403.842857 214.92 
L 408.967347 214.92 
L 414.091837 214.92 
L 419.216327 214.92 
L 424.340816 214.92 
L 429.465306 214.92 
L 434.589796 214.92 
L 439.714286 214.92 
L 444.838776 214.92 
L 449.963265 214.92 
L 455.087755 214.92 
L 460.212245 214.92 
L 465.336735 214.92 
L 470.461224 214.92 
L 475.585714 214.92 
L 480.710204 214.92 
L 485.834694 214.92 
L 490.959184 214.92 
L 496.083673 214.92 
L 501.208163 214.92 
L 506.332653 214.92 
L 511.457143 214.92 
L 516.581633 214.92 
L 521.706122 214.92 
L 526.830612 214.92 
L 531.955102 214.92 
L 537.079592 214.92 
L 542.204082 214.92 
L 547.328571 214.92 
L 552.453061 214.92 
L 557.577551 214.92 
L 562.702041 214.92 
L 567.826531 214.92 
L 572.95102 214.92 
L 578.07551 214.92 
L 583.2 214.92 
" style="fill:none;stroke:#800080;stroke-linecap:square;stroke-width:3;"/>
   </g>
   <g id="line2d_5">
    <defs>
     <path d="M 0 3 
C 0.795609 3 1.55874 2.683901 2.12132 2.12132 
C 2.683901 1.55874 3 0.795609 3 0 
C 3 -0.795609 2.683901 -1.55874 2.12132 -2.12132 
C 1.55874 -2.683901 0.795609 -3 0 -3 
C -0.795609 -3 -1.55874 -2.683901 -2.12132 -2.12132 
C -2.683901 -1.55874 -3 -0.795609 -3 0 
C -3 0.795609 -2.683901 1.55874 -2.12132 2.12132 
C -1.55874 2.683901 -0.795609 3 0 3 
z
" id="m647c637525" style="stroke:#ffa500;"/>
    </defs>
    <g clip-path="url(#pac8c82c0f1)">
     <use style="fill:#ffa500;stroke:#ffa500;" x="332.1" xlink:href="#m647c637525" y="214.92"/>
    </g>
   </g>
   <g id="patch_3">
    <path d="M 81 378 
L 81 51.84 
" style="fill:none;stroke:#ffffff;stroke-linecap:square;stroke-linejoin:miter;stroke-width:0.8;"/>
   </g>
   <g id="patch_4">
    <path d="M 583.2 378 
L 583.2 51.84 
" style="fill:none;stroke:#ffffff;stroke-linecap:square;stroke-linejoin:miter;stroke-width:0.8;"/>
   </g>
   <g id="patch_5">
    <path d="M 81 378 
L 583.2 378 
" style="fill:none;stroke:#ffffff;stroke-linecap:square;stroke-linejoin:miter;stroke-width:0.8;"/>
   </g>
   <g id="patch_6">
    <path d="M 81 51.84 
L 583.2 51.84 
" style="fill:none;stroke:#ffffff;stroke-linecap:square;stroke-linejoin:miter;stroke-width:0.8;"/>
   </g>
   <g id="patch_7">
    <path d="M 331.6 361.692 
Q 331.6 302.458047 331.6 243.224095 
L 326.1 243.224095 
Q 329.1 237.226047 332.1 231.228 
Q 335.1 237.226047 338.1 243.224095 
L 332.6 243.224095 
Q 332.6 302.458047 332.6 361.692 
L 331.6 361.692 
z
" style="fill:#ffffff;stroke:#000000;stroke-linecap:round;stroke-width:0.01;"/>
   </g>
   <g id="patch_8">
    <path d="M 332.6 68.148 
Q 332.6 127.381953 332.6 186.615905 
L 338.1 186.615905 
Q 335.1 192.613953 332.1 198.612 
Q 329.1 192.613953 326.1 186.615905 
L 331.6 186.615905 
Q 331.6 127.381953 331.6 68.148 
L 332.6 68.148 
z
" style="fill:#ffffff;stroke:#000000;stroke-linecap:round;stroke-width:0.01;"/>
   </g>
   <g id="patch_9">
    <path d="M 206.05 280.152 
Q 206.05 261.690536 206.05 243.229072 
L 200.55 243.229072 
Q 203.55 237.228536 206.55 231.228 
Q 209.55 237.228536 212.55 243.229072 
L 207.05 243.229072 
Q 207.05 261.690536 207.05 280.152 
L 206.05 280.152 
z
" style="fill:#ffffff;stroke:#000000;stroke-linecap:round;stroke-width:0.01;"/>
   </g>
   <g id="patch_10">
    <path d="M 207.05 68.148 
Q 207.05 127.381953 207.05 186.615905 
L 212.55 186.615905 
Q 209.55 192.613953 206.55 198.612 
Q 203.55 192.613953 200.55 186.615905 
L 206.05 186.615905 
Q 206.05 127.381953 206.05 68.148 
L 207.05 68.148 
z
" style="fill:#ffffff;stroke:#000000;stroke-linecap:round;stroke-width:0.01;"/>
   </g>
   <g id="patch_11">
    <path d="M 207.05 312.768 
Q 207.05 331.229464 207.05 349.690928 
L 212.55 349.690928 
Q 209.55 355.691464 206.55 361.692 
Q 203.55 355.691464 200.55 349.690928 
L 206.05 349.690928 
Q 206.05 331.229464 206.05 312.768 
L 207.05 312.768 
z
" style="fill:#ffffff;stroke:#000000;stroke-linecap:round;stroke-width:0.01;"/>
   </g>
   <g id="patch_12">
    <path d="M 457.15 198.612 
Q 457.15 180.150536 457.15 161.689072 
L 451.65 161.689072 
Q 454.65 155.688536 457.65 149.688 
Q 460.65 155.688536 463.65 161.689072 
L 458.15 161.689072 
Q 458.15 180.150536 458.15 198.612 
L 457.15 198.612 
z
" style="fill:#ffffff;stroke:#000000;stroke-linecap:round;stroke-width:0.01;"/>
   </g>
   <g id="patch_13">
    <path d="M 458.15 231.228 
Q 458.15 290.461953 458.15 349.695905 
L 463.65 349.695905 
Q 460.65 355.693953 457.65 361.692 
Q 454.65 355.693953 451.65 349.695905 
L 457.15 349.695905 
Q 457.15 290.461953 457.15 231.228 
L 458.15 231.228 
z
" style="fill:#ffffff;stroke:#000000;stroke-linecap:round;stroke-width:0.01;"/>
   </g>
   <g id="patch_14">
    <path d="M 458.15 68.148 
Q 458.15 86.609464 458.15 105.070928 
L 463.65 105.070928 
Q 460.65 111.071464 457.65 117.072 
Q 454.65 111.071464 451.65 105.070928 
L 457.15 105.070928 
Q 457.15 86.609464 457.15 68.148 
L 458.15 68.148 
z
" style="fill:#ffffff;stroke:#000000;stroke-linecap:round;stroke-width:0.01;"/>
   </g>
  </g>
 </g>
 <defs>
  <clipPath id="pac8c82c0f1">
   <rect height="326.16" width="502.2" x="81" y="51.84"/>
  </clipPath>
 </defs>
</svg>
